<svg xmlns="http://www.w3.org/2000/svg" width="800" height="489" viewBox="0 0 800 489" fill="none">
    <path d="M191 439H423C436.255 439 447 449.745 447 463V465C447 478.255 436.255 489 423 489H221.76L191 439Z" fill="#264248"/>
    <path d="M290 468.41V460.178H293.481C294.997 460.178 295.914 460.977 295.914 462.447C295.942 462.788 295.87 463.13 295.707 463.43C295.544 463.731 295.298 463.978 294.997 464.141C295.386 464.291 295.717 464.561 295.941 464.912C296.166 465.263 296.271 465.677 296.244 466.093C296.244 467.61 295.35 468.41 293.81 468.41H290ZM291.67 463.6H293.386C293.857 463.6 294.233 463.271 294.233 462.612C294.251 462.491 294.242 462.367 294.208 462.249C294.173 462.131 294.114 462.023 294.033 461.93C293.953 461.837 293.854 461.763 293.742 461.712C293.63 461.662 293.509 461.636 293.386 461.636H291.67V463.6ZM291.67 466.952H293.727C294.198 466.952 294.574 466.622 294.574 465.964C294.592 465.842 294.583 465.719 294.549 465.601C294.514 465.483 294.455 465.374 294.374 465.282C294.294 465.189 294.195 465.115 294.083 465.064C293.971 465.013 293.85 464.987 293.727 464.988H291.67V466.952Z" fill="white"/>
    <path d="M297.607 465.621V462.964C297.607 461.082 298.783 460.024 300.841 460.024C301.634 459.996 302.41 460.254 303.028 460.753C303.327 461.022 303.56 461.356 303.711 461.728C303.862 462.101 303.926 462.504 303.898 462.905V463.022H302.228V462.905C302.234 462.713 302.198 462.523 302.123 462.346C302.048 462.17 301.936 462.012 301.794 461.884C301.652 461.755 301.484 461.659 301.301 461.602C301.118 461.544 300.925 461.528 300.735 461.552C299.759 461.552 299.277 462.034 299.277 462.869V465.762C299.277 466.597 299.759 467.08 300.735 467.08C300.925 467.106 301.119 467.091 301.303 467.035C301.487 466.978 301.656 466.882 301.798 466.753C301.941 466.624 302.053 466.465 302.128 466.288C302.202 466.111 302.236 465.919 302.228 465.727V465.592H303.898V465.71C303.926 466.112 303.862 466.517 303.711 466.891C303.56 467.266 303.327 467.602 303.028 467.873C302.409 468.368 301.633 468.623 300.841 468.591C298.76 468.585 297.607 467.503 297.607 465.621Z" fill="white"/>
    <path d="M305.638 468.41V460.178H311V461.636H307.308V463.588H310.459V465.005H307.308V466.981H311.024V468.439L305.638 468.41Z" fill="white"/>
    <path d="M312.599 468.41V460.178H317.773V461.636H314.246V468.41H312.599Z" fill="white"/>
    <path d="M318.667 462.975C318.667 461.105 319.925 460 321.948 460C323.97 460 325.228 461.105 325.228 462.975V465.592C325.228 467.462 323.97 468.567 321.948 468.567C319.925 468.567 318.667 467.462 318.667 465.592V462.975ZM323.558 462.893C323.558 462.129 322.97 461.529 321.948 461.529C320.925 461.529 320.337 462.117 320.337 462.893V465.692C320.337 466.456 320.925 467.056 321.948 467.056C322.97 467.056 323.558 466.468 323.558 465.692V462.893Z" fill="white"/>
    <path d="M421.2 479.522L395.76 479.59C391.58 479.59 387.572 477.982 384.616 475.12C381.66 472.258 380 468.376 380 464.329C379.999 462.324 380.405 460.338 381.197 458.486C381.988 456.633 383.149 454.95 384.612 453.531C386.076 452.113 387.814 450.988 389.727 450.221C391.639 449.453 393.69 449.058 395.76 449.058L421.2 449C423.27 448.999 425.32 449.393 427.233 450.159C429.145 450.926 430.883 452.05 432.347 453.467C433.811 454.884 434.971 456.567 435.763 458.419C436.554 460.272 436.961 462.257 436.96 464.261C436.961 466.266 436.554 468.251 435.763 470.103C434.971 471.955 433.811 473.638 432.347 475.055C430.883 476.473 429.145 477.597 427.233 478.363C425.32 479.13 423.27 479.523 421.2 479.522Z" fill="white" stroke="#898F96" stroke-width="3" stroke-miterlimit="10"/>
    <path d="M485.97 302.16L484.11 301.92L184.8 301.99L136.19 317.41L263.83 352.41H461.97L482.54 352.34C489.229 352.34 495.643 349.683 500.373 344.953C505.103 340.223 507.76 333.809 507.76 327.12C507.754 321.03 505.544 315.148 501.539 310.56C497.534 305.972 492.004 302.988 485.97 302.16Z" fill="#24A89E"/>
    <g style="mix-blend-mode:multiply">
        <path d="M185.17 301.99L136.56 317.41L158.08 352.44H408.3L439.3 301.99H185.17Z" fill="#24A89E"/>
    </g>
    <path d="M482.61 342.911L457.17 342.971C455.099 342.972 453.049 342.566 451.136 341.774C449.222 340.983 447.484 339.822 446.02 338.358C444.555 336.895 443.393 335.157 442.601 333.244C441.808 331.332 441.4 329.281 441.4 327.211C441.403 323.03 443.065 319.022 446.022 316.066C448.98 313.111 452.989 311.451 457.17 311.451L482.61 311.381C486.789 311.384 490.796 313.045 493.751 316C496.706 318.955 498.367 322.962 498.37 327.141C498.37 331.322 496.71 335.331 493.755 338.288C490.799 341.246 486.791 342.908 482.61 342.911Z" fill="white" stroke="#898F96" stroke-width="3" stroke-miterlimit="10"/>


    <path d="M591.49 60.3809H589.49L103.1 60.4509L27.26 75.8708L49.8401 110.871H570.93L591.51 110.801C598.192 110.79 604.596 108.128 609.318 103.4C614.039 98.6714 616.69 92.2627 616.69 85.5809C616.685 78.899 614.028 72.4924 609.303 67.7676C604.579 63.0429 598.172 60.3862 591.49 60.3809Z" fill="#EAA034"/>
    <path d="M618.69 3.17522e-05H615.27L598.11 0.0700391H54.48L0 15.4801L182.54 50.4801H598.15L618.73 50.4101C625.419 50.4101 631.834 47.753 636.563 43.0233C641.293 38.2936 643.95 31.8788 643.95 25.19C643.946 21.8773 643.289 18.5977 642.018 15.5387C640.746 12.4798 638.884 9.70127 636.538 7.36203C634.193 5.02279 631.409 3.16862 628.347 1.90543C625.284 0.642233 622.003 -0.0052248 618.69 3.17522e-05Z" fill="#7196CC"/>
    <path d="M564.25 120.77H563.63L130.32 120.84L55 136L182.12 171.25H543.69L564.26 171.18C567.572 171.18 570.851 170.527 573.911 169.26C576.971 167.992 579.751 166.135 582.093 163.793C584.435 161.451 586.293 158.671 587.56 155.611C588.828 152.551 589.48 149.271 589.48 145.96C589.472 139.274 586.81 132.866 582.079 128.142C577.348 123.419 570.935 120.767 564.25 120.77Z" fill="#86B8E0"/>
    <g style="mix-blend-mode:multiply">
        <path d="M0 15.4903L54.47 0.0703125H575.11L544.11 50.5103H21.52L0 15.4903Z" fill="#7196CC"/>
    </g>
    <g style="mix-blend-mode:multiply">
        <path d="M106.33 59.8398L27.24 75.8698L52.62 110.9H516.87L547.87 60.4498L106.33 59.8398Z" fill="#EAA034"/>
    </g>
    <g style="mix-blend-mode:multiply">
        <path d="M130.69 120.84L55 136L76.3701 171.28H490.01L521.01 120.84H130.69Z" fill="#86B8E0"/>
    </g>
    <path d="M537.78 181.17L157.54 181.24L81.6899 196.64L209.34 231.64H516.42L536.99 231.57C543.68 231.57 550.095 228.913 554.827 224.184C559.558 219.454 562.217 213.04 562.22 206.35C562.213 199.801 559.658 193.512 555.097 188.813C550.536 184.113 544.326 181.372 537.78 181.17Z" fill="#8D84C0"/>
    <g style="mix-blend-mode:multiply">
        <path d="M157.93 181.221L82.0801 196.641L102.33 229.591L462.77 231.671L493.77 181.221H157.93Z" fill="#8D84C0"/>
    </g>
    <path d="M511.9 241.629L511.96 241.539L157.56 241.609L108.95 257.019L236.59 292.019H489.2L509.78 291.949C516.469 291.949 522.883 289.292 527.613 284.562C532.343 279.833 535 273.418 535 266.729C534.992 260.413 532.615 254.329 528.337 249.681C524.06 245.033 518.194 242.16 511.9 241.629Z" fill="#238C88"/>
    <g style="mix-blend-mode:multiply">
        <path d="M157.93 241.609L109.32 257.029L130.85 292.049H435.54L466.54 241.609H157.93Z" fill="#238C88"/>
    </g>
    <path d="M537.08 222.139L511.64 222.209C507.459 222.207 503.451 220.544 500.495 217.587C497.54 214.63 495.88 210.62 495.88 206.439C495.881 204.366 496.291 202.313 497.087 200.398C497.883 198.484 499.048 196.744 500.516 195.281C501.985 193.817 503.728 192.657 505.645 191.867C507.562 191.078 509.616 190.674 511.69 190.679L537.13 190.609C541.311 190.609 545.32 192.269 548.277 195.225C551.235 198.18 552.897 202.189 552.9 206.369C552.9 208.445 552.49 210.499 551.695 212.416C550.899 214.332 549.733 216.073 548.263 217.538C546.794 219.003 545.049 220.164 543.13 220.953C541.211 221.743 539.155 222.146 537.08 222.139Z" fill="white" stroke="#898F96" stroke-width="3" stroke-miterlimit="10"/>


    <path d="M509.78 282.52L484.34 282.59C480.16 282.59 476.15 280.93 473.193 277.975C470.236 275.02 468.573 271.011 468.57 266.83C468.57 262.648 470.232 258.637 473.189 255.679C476.147 252.722 480.158 251.06 484.34 251.06L509.78 250.99C513.961 250.993 517.97 252.656 520.925 255.613C523.88 258.57 525.54 262.579 525.54 266.76C525.538 270.939 523.876 274.946 520.921 277.901C517.966 280.856 513.959 282.518 509.78 282.52Z" fill="white" stroke="#898F96" stroke-width="3" stroke-miterlimit="10"/>

    <path d="M481.25 387.579C481.25 381.258 478.875 375.166 474.597 370.512C470.319 365.858 464.449 362.981 458.15 362.449L456.57 362.369H212.03L163.42 377.789L291.07 412.789H435.5L456.03 412.719C462.705 412.719 469.108 410.073 473.835 405.361C478.562 400.648 481.229 394.254 481.25 387.579Z" fill="#5AB708"/>
    <g style="mix-blend-mode:multiply">
        <path d="M212.41 362.381L163.8 377.801L185.32 412.821H381.06L412.06 362.381H212.41Z" fill="#5AB708"/>
    </g>
    <path d="M454.4 403.3L428.96 403.37C426.887 403.37 424.835 402.961 422.92 402.168C421.006 401.374 419.266 400.211 417.802 398.744C416.337 397.278 415.176 395.537 414.385 393.621C413.593 391.705 413.187 389.653 413.19 387.58C413.193 383.399 414.855 379.391 417.812 376.435C420.77 373.48 424.779 371.82 428.96 371.82L454.4 371.75C456.475 371.751 458.53 372.162 460.446 372.959C462.362 373.756 464.102 374.923 465.566 376.394C467.03 377.864 468.189 379.609 468.978 381.529C469.766 383.449 470.168 385.505 470.16 387.58C470.147 391.752 468.481 395.749 465.527 398.695C462.573 401.642 458.572 403.297 454.4 403.3Z" fill="white" stroke="#898F96" stroke-width="3" stroke-miterlimit="10"/>

    <path d="M564.32 161.751L538.88 161.821C534.7 161.821 530.69 160.161 527.733 157.205C524.776 154.25 523.113 150.241 523.11 146.061C523.11 141.878 524.772 137.867 527.729 134.91C530.687 131.952 534.698 130.291 538.88 130.291L564.32 130.221C566.391 130.221 568.441 130.629 570.354 131.421C572.267 132.214 574.004 133.376 575.468 134.84C576.931 136.305 578.092 138.043 578.884 139.957C579.675 141.87 580.082 143.92 580.08 145.991C580.08 150.171 578.42 154.179 575.464 157.135C572.509 160.09 568.5 161.751 564.32 161.751Z" fill="white" stroke="#898F96" stroke-width="3" stroke-miterlimit="10"/>


    <path d="M591.56 101.37L566.12 101.44C561.938 101.44 557.926 99.7784 554.969 96.8209C552.012 93.8635 550.35 89.8523 550.35 85.6699C550.353 81.4891 552.015 77.4805 554.973 74.5252C557.93 71.5699 561.939 69.9099 566.12 69.9099L591.56 69.8398C595.736 69.8425 599.74 71.501 602.694 74.4517C605.648 77.4023 607.312 81.4043 607.32 85.5798C607.323 87.6516 606.917 89.7036 606.126 91.6186C605.336 93.5336 604.175 95.2739 602.712 96.7403C601.248 98.2067 599.51 99.3703 597.597 100.165C595.683 100.959 593.632 101.369 591.56 101.37Z" fill="white" stroke="#898F96" stroke-width="3" stroke-miterlimit="10"/>


    <path d="M618.79 40.981L593.35 41.0509C589.171 41.0483 585.164 39.387 582.209 36.432C579.254 33.477 577.592 29.47 577.59 25.291C577.59 21.1102 579.25 17.1005 582.205 14.1434C585.16 11.1862 589.169 9.52359 593.35 9.52094L618.79 9.46094C620.86 9.45963 622.911 9.86629 624.824 10.6577C626.737 11.4491 628.476 12.6098 629.94 14.0734C631.405 15.5369 632.567 17.2748 633.359 19.1876C634.152 21.1003 634.56 23.1505 634.56 25.221C634.557 29.4017 632.895 33.4103 629.937 36.3655C626.98 39.3208 622.971 40.981 618.79 40.981Z" fill="white" stroke="#898F96" stroke-width="3" stroke-miterlimit="10"/>

    <path d="M774.75 241.58H739.62H587.74L556.74 292.08H692.98H774.75C781.447 292.08 787.869 289.42 792.605 284.685C797.34 279.949 800 273.527 800 266.83C799.998 260.134 797.337 253.713 792.602 248.979C787.867 244.244 781.446 241.583 774.75 241.58Z" fill="#70998E"/>
    <path d="M774.75 301.91H730.89L700.5 352.41H774.75C781.446 352.408 787.867 349.746 792.602 345.012C797.336 340.277 799.997 333.856 800 327.16C799.997 320.464 797.336 314.043 792.602 309.309C787.867 304.574 781.446 301.913 774.75 301.91Z" fill="#46B7D1"/>
    <path d="M560.5 301.92V301.93L529.51 352.44H700.5L730.89 301.93V301.92H560.5Z" fill="#46B7D1"/>
    <g style="mix-blend-mode:multiply">
        <path d="M587.74 241.539L556.74 292.049H700.54L730.89 241.529L587.74 241.539Z" fill="#70998E"/>
    </g>
    <path d="M608.11 269.92L609.11 267.92L606.17 262.27V261.68H607.82L610.02 266L611.94 261.68H613.51V262.27L609.83 270.52H608.11V269.92Z" fill="white"/>
    <path d="M613.27 272.25V268.95H613.96C614.255 268.565 614.482 268.132 614.63 267.67C614.811 267.019 614.892 266.345 614.87 265.67V261.67H620.67V268.95H621.67V272.25H620.03V270.51H614.92V272.25H613.27ZM618.87 268.95V263.24H616.51V265.65C616.513 266.169 616.476 266.687 616.4 267.2C616.359 267.54 616.285 267.874 616.18 268.2C616.098 268.457 615.997 268.707 615.88 268.95H618.87Z" fill="white"/>
    <path d="M622.31 270.51V269.92L625.36 261.67H627.12L630.19 269.92V270.51H628.42L627.71 268.44H624.71L623.98 270.51H622.31ZM625.23 266.95H627.17L626.17 264.07L625.23 266.95Z" fill="white"/>
    <path d="M630.69 268.87C631.99 268.82 632.23 268.4 632.28 265.87V261.65H638.03V270.49H636.23V263.22H633.92V266.17C634.021 267.338 633.748 268.508 633.14 269.51C632.838 269.857 632.459 270.128 632.034 270.302C631.608 270.475 631.148 270.547 630.69 270.51V268.87Z" fill="white"/>
    <path d="M640.23 270.51V261.67H645.99V263.24H641.99V265.33H645.38V266.82H641.99V268.95H645.99V270.51H640.23Z" fill="white"/>
    <path d="M647.69 270.51V261.67H649.48V265.31H652.71V261.67H654.51V270.51H652.71V266.87H649.48V270.51H647.69Z" fill="white"/>
    <path d="M656.52 264.68C656.52 262.68 657.87 261.48 660.04 261.48C662.21 261.48 663.56 262.67 663.56 264.68V267.51C663.56 269.51 662.21 270.7 660.04 270.7C657.87 270.7 656.52 269.51 656.52 267.51V264.68ZM661.77 264.59C661.77 263.77 661.16 263.12 660.04 263.12C658.92 263.12 658.31 263.77 658.31 264.59V267.59C658.31 268.41 658.92 269.06 660.04 269.06C661.16 269.06 661.77 268.41 661.77 267.59V264.59Z" fill="white"/>
    <path d="M774.62 251.08H749.35C740.635 251.08 733.57 258.145 733.57 266.86V266.87C733.57 275.585 740.635 282.65 749.35 282.65H774.62C783.335 282.65 790.4 275.585 790.4 266.87V266.86C790.4 258.145 783.335 251.08 774.62 251.08Z" fill="white" stroke="#898F96" stroke-width="3" stroke-miterlimit="10"/>


    <g style="mix-blend-mode:multiply">
        <path d="M529.51 352.44H700.5L730.89 301.92H560.5L529.51 352.44Z" fill="#46B7D1"/>
    </g>
    <path d="M584.69 327.9V325.05C584.69 323.05 585.93 321.87 588.16 321.87C589.012 321.837 589.847 322.115 590.51 322.65C590.832 322.938 591.083 323.296 591.246 323.696C591.409 324.097 591.479 324.529 591.45 324.96V325.09H589.65V324.96C589.656 324.755 589.618 324.551 589.537 324.362C589.457 324.173 589.336 324.004 589.184 323.866C589.032 323.728 588.852 323.625 588.656 323.563C588.46 323.502 588.253 323.484 588.05 323.51C587.05 323.51 586.48 324.03 586.48 324.92V328.03C586.48 328.93 587 329.44 588.05 329.44C588.254 329.469 588.462 329.454 588.66 329.393C588.857 329.333 589.039 329.23 589.192 329.092C589.345 328.953 589.465 328.782 589.544 328.592C589.623 328.401 589.659 328.196 589.65 327.99V327.86H591.45V327.99C591.479 328.422 591.41 328.856 591.247 329.258C591.084 329.66 590.832 330.02 590.51 330.31C589.847 330.845 589.012 331.122 588.16 331.09C585.91 331.09 584.69 329.92 584.69 327.9Z" fill="white"/>
    <path d="M597.85 328.141H596.74L595 325.241V330.901H593.27V322.051H595L597.32 325.961L599.65 322.051H601.33V330.901H599.6V325.241L597.85 328.141Z" fill="white"/>
    <path d="M602.69 330.901V330.301L605.75 322.051H607.51L610.57 330.301V330.901H608.81L608.1 328.821H605.1L604.37 330.901H602.69ZM605.61 327.331H607.61L606.61 324.451L605.61 327.331Z" fill="white"/>
    <path d="M611.88 330.9V322.05H615.83C616.189 322.038 616.547 322.105 616.878 322.245C617.209 322.386 617.506 322.596 617.748 322.863C617.989 323.129 618.17 323.445 618.278 323.788C618.385 324.131 618.416 324.494 618.37 324.85C618.413 325.205 618.38 325.565 618.271 325.905C618.162 326.245 617.98 326.558 617.739 326.821C617.498 327.084 617.202 327.292 616.872 327.43C616.542 327.568 616.187 327.633 615.83 327.62H613.69V330.9H611.88ZM613.67 326.06H615.51C616.1 326.06 616.51 325.64 616.51 324.83C616.51 324.02 616.06 323.62 615.51 323.62H613.69L613.67 326.06Z" fill="white"/>
    <path d="M621.63 330.9V323.58H619.14V322.01H625.9V323.58H623.42V330.86L621.63 330.9Z" fill="white"/>
    <path d="M626.25 327.689V326.199H630.39V327.689H626.25Z" fill="white"/>
    <path d="M632.24 330.901V322.051H638.98V330.901H637.19V323.581H634.03V330.861L632.24 330.901Z" fill="white"/>
    <path d="M640.32 330.901V330.301L643.38 322.051H645.13L648.2 330.301V330.901H646.43L645.72 328.821H642.72L641.98 330.901H640.32ZM643.24 327.331H645.18L644.18 324.451L643.24 327.331Z" fill="white"/>
    <path d="M650.22 330.301L651.22 328.301L648.22 322.661V322.061H649.88L652.08 326.381L654 322.061H655.56V322.661L651.89 330.911H650.17L650.22 330.301Z" fill="white"/>
    <path d="M657.32 330.311C656.978 330.034 656.708 329.678 656.534 329.274C656.36 328.87 656.286 328.429 656.32 327.991H658.11C658.11 328.991 658.82 329.441 659.82 329.441C660.82 329.441 661.26 329.051 661.26 328.331C661.26 327.611 660.79 327.231 659.86 327.231H658.69V325.741H659.83C660.6 325.741 661.04 325.351 661.04 324.681C661.043 324.515 661.01 324.351 660.943 324.199C660.877 324.047 660.779 323.911 660.656 323.8C660.533 323.689 660.388 323.606 660.23 323.556C660.071 323.506 659.905 323.491 659.74 323.511C659.546 323.492 659.35 323.516 659.166 323.583C658.982 323.649 658.816 323.756 658.679 323.895C658.542 324.034 658.438 324.201 658.374 324.386C658.31 324.57 658.288 324.767 658.31 324.961H656.52C656.486 324.53 656.55 324.098 656.708 323.696C656.866 323.294 657.112 322.933 657.43 322.641C658.078 322.107 658.901 321.832 659.74 321.871C661.74 321.871 662.86 322.871 662.86 324.491C662.861 324.88 662.76 325.264 662.567 325.602C662.374 325.941 662.096 326.223 661.76 326.421C662.142 326.57 662.469 326.834 662.696 327.176C662.923 327.517 663.04 327.921 663.03 328.331C663.03 330.011 661.82 331.091 659.79 331.091C658.903 331.112 658.034 330.837 657.32 330.311Z" fill="white"/>
    <path d="M663.89 330.901V330.301L666.95 322.051H668.69L671.76 330.301V330.901H669.99L669.28 328.821H666.28L665.55 330.901H663.89ZM666.81 327.331H668.81L667.81 324.451L666.81 327.331Z" fill="white"/>
    <path d="M774.62 311.381H749.35C740.635 311.381 733.57 318.446 733.57 327.161V327.171C733.57 335.886 740.635 342.951 749.35 342.951H774.62C783.335 342.951 790.4 335.886 790.4 327.171V327.161C790.4 318.446 783.335 311.381 774.62 311.381Z" fill="white" stroke="#898F96" stroke-width="3" stroke-miterlimit="10"/>

    <path d="M774.75 362.289H533.27L502.27 412.799H774.73C781.424 412.802 787.846 410.147 792.584 405.418C797.322 400.689 799.99 394.273 800 387.579C800.005 384.26 799.356 380.972 798.089 377.904C796.823 374.836 794.964 372.048 792.619 369.699C790.274 367.35 787.488 365.486 784.422 364.215C781.356 362.943 778.069 362.289 774.75 362.289Z" fill="#5898AF"/>
    <g style="mix-blend-mode:multiply">
        <path d="M700.54 412.821L730.89 362.311H533.27L502.29 412.821H700.54Z" fill="#5898AF"/>
    </g>
    <path d="M547.26 391.279V382.439H554V391.279H552.21V384.009H549.05V391.279H547.26Z" fill="white"/>
    <path d="M556.22 391.279V382.439H561.98V384.009H557.98V386.099H561.36V387.579H557.98V389.699H561.98V391.269L556.22 391.279Z" fill="white"/>
    <path d="M563.69 391.279V382.439H567.69C568.049 382.426 568.406 382.491 568.738 382.63C569.069 382.769 569.366 382.979 569.607 383.245C569.849 383.51 570.03 383.825 570.138 384.168C570.245 384.511 570.277 384.873 570.23 385.229C570.275 385.585 570.243 385.946 570.134 386.287C570.026 386.629 569.845 386.942 569.603 387.207C569.362 387.471 569.065 387.68 568.735 387.819C568.404 387.957 568.048 388.022 567.69 388.009H565.53V391.279H563.69ZM565.49 386.439H567.32C567.91 386.439 568.32 386.029 568.32 385.219C568.32 384.409 567.86 384.009 567.32 384.009H565.49V386.439Z" fill="white"/>
    <path d="M571.87 391.279V382.439H577.63V384.009H573.63V386.099H577.02V387.579H573.69V389.699H577.69V391.269L571.87 391.279Z" fill="white"/>
    <path d="M578.99 388.29V385.43C578.99 383.43 580.23 382.25 582.46 382.25C583.312 382.221 584.145 382.497 584.81 383.03C585.132 383.319 585.383 383.677 585.546 384.077C585.709 384.477 585.779 384.909 585.75 385.34V385.47H583.95V385.34C583.956 385.135 583.918 384.931 583.837 384.742C583.757 384.553 583.636 384.384 583.484 384.246C583.332 384.109 583.152 384.005 582.956 383.944C582.761 383.882 582.554 383.864 582.35 383.89C581.3 383.89 580.79 384.41 580.79 385.31V388.41C580.79 389.31 581.3 389.83 582.35 389.83C582.554 389.858 582.762 389.841 582.958 389.78C583.155 389.719 583.336 389.616 583.488 389.478C583.641 389.34 583.761 389.17 583.841 388.98C583.921 388.791 583.958 388.586 583.95 388.38V388.25H585.75V388.38C585.779 388.813 585.709 389.246 585.547 389.648C585.384 390.05 585.132 390.41 584.81 390.7C584.147 391.234 583.311 391.508 582.46 391.47C580.23 391.47 578.99 390.31 578.99 388.29Z" fill="white"/>
    <path d="M592.18 388.58H591.06L589.32 385.67V391.33H587.59V382.49H589.32L591.65 386.39L593.97 382.49H595.69V391.33H593.96V385.58L592.18 388.58Z" fill="white"/>
    <path d="M597.62 385.45C597.62 383.45 598.97 382.25 601.14 382.25C603.31 382.25 604.67 383.44 604.67 385.45V388.28C604.67 390.28 603.31 391.47 601.14 391.47C598.97 391.47 597.62 390.28 597.62 388.28V385.45ZM602.87 385.36C602.87 384.54 602.27 383.89 601.14 383.89C600.01 383.89 599.41 384.54 599.41 385.36V388.36C599.41 389.18 600.02 389.83 601.14 389.83C602.26 389.83 602.87 389.18 602.87 388.36V385.36Z" fill="white"/>
    <path d="M608.24 391.279V384.009H605.75V382.439H612.51V384.009H610.03V391.279H608.24Z" fill="white"/>
    <path d="M613.84 391.279V382.439H617.84C618.199 382.426 618.557 382.491 618.888 382.63C619.219 382.769 619.516 382.979 619.757 383.245C619.999 383.51 620.18 383.825 620.288 384.168C620.395 384.511 620.427 384.873 620.38 385.229C620.425 385.585 620.392 385.946 620.284 386.287C620.176 386.629 619.995 386.942 619.753 387.207C619.512 387.471 619.215 387.68 618.885 387.819C618.554 387.957 618.198 388.022 617.84 388.009H615.69V391.279H613.84ZM615.64 386.439H617.47C618.06 386.439 618.47 386.029 618.47 385.219C618.47 384.409 618.01 384.009 617.47 384.009H615.69L615.64 386.439Z" fill="white"/>
    <path d="M624.94 391.279V382.439H631.69V391.279H629.9V384.009H626.74V391.279H624.94Z" fill="white"/>
    <path d="M633.91 391.279V382.439H637.91C638.269 382.426 638.627 382.491 638.958 382.63C639.289 382.769 639.586 382.979 639.828 383.245C640.069 383.51 640.25 383.825 640.358 384.168C640.465 384.511 640.497 384.873 640.45 385.229C640.495 385.585 640.463 385.946 640.354 386.287C640.246 386.629 640.065 386.942 639.823 387.207C639.582 387.471 639.285 387.68 638.955 387.819C638.625 387.957 638.268 388.022 637.91 388.009H635.69V391.279H633.91ZM635.7 386.439H637.53C638.13 386.439 638.53 386.029 638.53 385.219C638.53 384.409 638.08 384.009 637.53 384.009H635.69L635.7 386.439Z" fill="white"/>
    <path d="M641.8 385.45C641.8 383.45 643.15 382.25 645.33 382.25C647.51 382.25 648.85 383.44 648.85 385.45V388.28C648.85 390.28 647.5 391.47 645.33 391.47C643.16 391.47 641.8 390.28 641.8 388.28V385.45ZM647.06 385.36C647.06 384.54 646.45 383.89 645.33 383.89C644.21 383.89 643.6 384.54 643.6 385.36V388.36C643.6 389.18 644.2 389.83 645.33 389.83C646.46 389.83 647.06 389.18 647.06 388.36V385.36Z" fill="white"/>
    <path d="M650.82 391.279V382.439H656.58V384.009H652.58V386.099H655.97V387.579H652.58V389.699H656.58V391.269L650.82 391.279Z" fill="white"/>
    <path d="M658.32 391.279V382.439H660.11V386.079H661.05L663.18 382.439H664.85V383.029L662.61 386.759L665.04 390.689V391.279H663.26L661.05 387.639H660.11V391.279H658.32Z" fill="white"/>
    <path d="M667.97 391.279V384.009H665.48V382.439H672.24V384.009H669.76V391.279H667.97Z" fill="white"/>
    <path d="M672.11 391.279V390.689L675.17 382.439H676.92L679.99 390.689V391.279H678.22L677.51 389.209H674.51L673.77 391.279H672.11ZM675.03 387.719H676.97L675.97 384.839L675.03 387.719Z" fill="white"/>
    <path d="M774.62 371.76H749.35C740.635 371.76 733.57 378.825 733.57 387.54V387.55C733.57 396.265 740.635 403.33 749.35 403.33H774.62C783.335 403.33 790.4 396.265 790.4 387.55V387.54C790.4 378.825 783.335 371.76 774.62 371.76Z" fill="white" stroke="#898F96" stroke-width="3" stroke-miterlimit="10"/>


    <g style="mix-blend-mode:multiply">
        <path d="M212.41 362.381L163.8 377.801L185.32 412.821H381.06L412.06 362.381H212.41Z" fill="#5AB708"/>
    </g>
    <g style="mix-blend-mode:multiply">
        <path d="M185.17 301.99L136.56 317.41L158.08 352.44H408.3L439.3 301.99H185.17Z" fill="#24A89E"/>
    </g>
    <g style="mix-blend-mode:multiply">
        <path d="M0 15.4903L54.47 0.0703125H575.11L544.11 50.5103H21.52L0 15.4903Z" fill="#7196CC"/>
    </g>
    <g style="mix-blend-mode:multiply">
        <path d="M106.33 59.8398L27.24 75.8698L52.62 110.9H516.87L547.87 60.4498L106.33 59.8398Z" fill="#EAA034"/>
    </g>
    <g style="mix-blend-mode:multiply">
        <path d="M130.814 121L55 136L76.5126 171H490.011L521 121H130.814Z" fill="#86B8E0"/>
    </g>
    <g style="mix-blend-mode:multiply">
        <path d="M157.93 181.221L82.0801 196.641L102.33 229.591L462.77 231.671L493.77 181.221H157.93Z" fill="#8D84C0"/>
    </g>
    <g style="mix-blend-mode:multiply">
        <path d="M157.93 241.609L109.32 257.029L130.85 292.049H435.54L466.54 241.609H157.93Z" fill="#238C88"/>
    </g>
    <path d="M491.09 15.4902H54.89H0L31 65.9302H85.89H460.09H514.98L545.98 15.4902H491.09Z" fill="#7196CC"/>
    <path d="M463.85 75.8691H82.13H27.24L58.24 126.309H113.13H432.85H487.74L518.74 75.8691H463.85Z" fill="#EAA034"/>
    <path d="M436.61 136.26H109.36L55 136L85.47 186.7H140.36H405.61H460.5L491.5 136.26H436.61Z" fill="#86B8E0"/>
    <path d="M409.37 196.641H136.6H81.71L112.71 247.081H167.6H378.38H433.27L464.27 196.641H409.37Z" fill="#8D84C0"/>
    <path d="M382.14 257.029H163.84H108.95L139.95 307.469H194.84H351.14H406.03L437.03 257.029H382.14Z" fill="#238C88"/>
    <path d="M354.9 317.41H191.08H136.19L167.18 367.85H222.08H323.9H378.79L409.79 317.41H354.9Z" fill="#24A89E"/>
    <path d="M327.66 377.801H218.31H163.42L194.42 428.241H249.31H296.66H351.56L382.55 377.801H327.66Z" fill="#5AB708"/>
    <g style="mix-blend-mode:multiply">
        <path d="M85.89 65.9302H99.14L68.14 15.4902H54.89H0L31 65.9302H85.89Z" fill="#7196CC"/>
    </g>
    <g style="mix-blend-mode:multiply">
        <path d="M82.13 75.8691H27.24L58.24 126.309H113.13H126.38L95.38 75.8691H82.13Z" fill="#EAA034"/>
    </g>
    <g style="mix-blend-mode:multiply">
        <path d="M109.36 136.26L55 136L85.47 186.7H140.36H153.61L122.61 136.26H109.36Z" fill="#86B8E0"/>
    </g>
    <g style="mix-blend-mode:multiply">
        <path d="M136.6 196.641H81.71L112.71 247.081H167.6H180.85L149.85 196.641H136.6Z" fill="#8D84C0"/>
    </g>
    <g style="mix-blend-mode:multiply">
        <path d="M163.84 257.029H108.95L139.95 307.469H194.84H208.09L177.09 257.029H163.84Z" fill="#238C88"/>
    </g>
    <g style="mix-blend-mode:multiply">
        <path d="M191.08 317.41H136.19L167.18 367.85H222.08H235.32L204.33 317.41H191.08Z" fill="#24A89E"/>
    </g>
    <g style="mix-blend-mode:multiply">
        <path d="M218.31 377.801H163.42L194.42 428.241H249.31H262.56L231.56 377.801H218.31Z" fill="#5AB708"/>
    </g>
    <g style="mix-blend-mode:multiply">
        <path d="M99.14 65.9302L68.14 15.4902H64.99L95.98 65.9302H99.14Z" fill="#7196CC"/>
    </g>
    <g style="mix-blend-mode:multiply">
        <path d="M126.38 126.309L95.38 75.8691H92.22L123.22 126.309H126.38Z" fill="#EAA034"/>
    </g>
    <g style="mix-blend-mode:multiply">
        <path d="M153.61 186.7L122.61 136.26H119.46L150.46 186.7H153.61Z" fill="#86B8E0"/>
    </g>
    <g style="mix-blend-mode:multiply">
        <path d="M180.85 247.081L149.85 196.641H146.7L177.7 247.081H180.85Z" fill="#8D84C0"/>
    </g>
    <g style="mix-blend-mode:multiply">
        <path d="M208.09 307.469L177.09 257.029H173.94L204.93 307.469H208.09Z" fill="#238C88"/>
    </g>
    <g style="mix-blend-mode:multiply">
        <path d="M235.32 367.85L204.33 317.41H201.17L232.17 367.85H235.32Z" fill="#24A89E"/>
    </g>
    <g style="mix-blend-mode:multiply">
        <path d="M228.41 377.801L259.41 428.241H262.56L231.56 377.801H228.41Z" fill="#5AB708"/>
    </g>
    <path d="M215.49 218.24V209.4H222.23V218.24H220.44V210.97H217.28V218.24H215.49Z" fill="white"/>
    <path d="M224.45 218.24V209.4H230.21V210.97H226.21V213.06H229.59V214.56H226.21V216.68H230.21V218.24H224.45Z" fill="white"/>
    <path d="M231.96 218.24V209.4H235.96C236.318 209.388 236.675 209.455 237.005 209.594C237.336 209.734 237.632 209.944 237.873 210.209C238.115 210.474 238.296 210.789 238.404 211.131C238.512 211.472 238.545 211.834 238.5 212.19C238.545 212.545 238.513 212.906 238.404 213.248C238.296 213.589 238.115 213.903 237.873 214.167C237.632 214.432 237.335 214.641 237.005 214.779C236.675 214.918 236.318 214.983 235.96 214.97H233.8V218.24H231.96ZM233.75 213.41H235.58C236.17 213.41 236.58 212.99 236.58 212.18C236.58 211.37 236.12 210.97 235.58 210.97H233.75V213.41Z" fill="white"/>
    <path d="M240.1 218.24V209.4H245.86V210.97H241.86V213.06H245.25V214.56H241.86V216.68H245.86V218.24H240.1Z" fill="white"/>
    <path d="M246.78 219.99V216.68H247.47C247.765 216.295 247.992 215.862 248.14 215.4C248.326 214.751 248.407 214.076 248.38 213.4V209.4H254.18V216.68H255.18V219.99H253.54V218.24H248.42V219.99H246.78ZM252.39 216.68V210.97H250.03V213.38C250.035 213.9 249.995 214.418 249.91 214.93C249.871 215.269 249.801 215.604 249.7 215.93C249.611 216.186 249.507 216.436 249.39 216.68H252.39Z" fill="white"/>
    <path d="M255.82 218.24V217.65L258.88 209.4H260.63L263.7 217.65V218.24H261.93L261.23 216.17H258.23L257.5 218.24H255.82ZM258.74 214.68H260.69L259.69 211.8L258.74 214.68Z" fill="white"/>
    <path d="M268.79 218.241V215.031C268.311 215.114 267.826 215.16 267.34 215.171C265.15 215.171 264.05 214.291 264.05 212.511V209.401H265.85V212.311C265.85 213.131 266.39 213.531 267.48 213.531C267.921 213.533 268.36 213.486 268.79 213.391V209.391H270.59V218.231L268.79 218.241Z" fill="white"/>
    <path d="M271.92 218.24V217.65L274.98 209.4H276.69L279.76 217.65V218.24H277.99L277.29 216.17H274.29L273.56 218.24H271.92ZM274.84 214.68H276.78L275.78 211.8L274.84 214.68Z" fill="white"/>
    <path d="M284.1 218.24V209.4H287.83C288.17 209.354 288.515 209.383 288.842 209.487C289.169 209.59 289.469 209.765 289.719 209.998C289.97 210.232 290.166 210.519 290.292 210.837C290.419 211.156 290.473 211.498 290.45 211.84C290.475 212.208 290.395 212.575 290.217 212.897C290.04 213.22 289.774 213.485 289.45 213.66C289.868 213.82 290.223 214.109 290.464 214.485C290.705 214.861 290.819 215.305 290.79 215.75C290.82 216.096 290.772 216.443 290.65 216.767C290.528 217.091 290.334 217.383 290.083 217.623C289.833 217.862 289.531 218.041 289.202 218.148C288.873 218.255 288.523 218.287 288.18 218.24H284.1ZM285.89 213.08H287.69C288.2 213.08 288.6 212.72 288.6 212.02C288.6 211.32 288.2 210.97 287.69 210.97H285.85L285.89 213.08ZM285.89 216.68H288.1C288.6 216.68 289.01 216.32 289.01 215.62C289.029 215.49 289.019 215.357 288.982 215.231C288.945 215.104 288.881 214.987 288.795 214.888C288.708 214.788 288.602 214.709 288.482 214.654C288.362 214.599 288.232 214.571 288.1 214.57H285.89V216.68Z" fill="white"/>
    <path d="M295.22 212.411C295.22 210.411 296.57 209.211 298.74 209.211C300.91 209.211 302.27 210.401 302.27 212.411V215.241C302.27 217.241 300.92 218.431 298.74 218.431C296.56 218.431 295.22 217.251 295.22 215.241V212.411ZM300.47 212.321C300.47 211.501 299.87 210.851 298.74 210.851C297.61 210.851 297.01 211.501 297.01 212.321V215.321C297.01 216.141 297.62 216.781 298.74 216.781C299.86 216.781 300.47 216.141 300.47 215.321V212.321Z" fill="white"/>
    <path d="M304.24 218.24V209.4H310.98V218.24H309.19V210.97H306.03V218.24H304.24Z" fill="white"/>
    <path d="M313.2 218.24V209.4H318.96V210.97H314.96V213.06H318.34V214.56H314.96V216.68H318.96V218.24H313.2Z" fill="white"/>
    <path d="M320.69 218.24V209.4H324.69C325.048 209.388 325.405 209.455 325.735 209.594C326.066 209.734 326.362 209.944 326.603 210.209C326.845 210.474 327.026 210.789 327.134 211.131C327.242 211.472 327.275 211.834 327.23 212.19C327.275 212.545 327.243 212.906 327.134 213.248C327.026 213.589 326.845 213.903 326.603 214.167C326.362 214.432 326.065 214.641 325.735 214.779C325.404 214.918 325.048 214.983 324.69 214.97H322.53V218.24H320.69ZM322.49 213.41H324.32C324.91 213.41 325.32 212.99 325.32 212.18C325.32 211.37 324.86 210.97 324.32 210.97H322.49V213.41Z" fill="white"/>
    <path d="M327.33 218.24V217.65L330.39 209.4H332.14L335.21 217.65V218.24H333.45L332.74 216.17H329.74L329.01 218.24H327.33ZM330.25 214.68H332.25L331.25 211.8L330.25 214.68Z" fill="white"/>
    <path d="M342.58 219.99V218.24H336.58V209.4H338.37V216.68H341.46V209.4H343.25V216.68H344.25V219.99H342.58Z" fill="white"/>
    <path d="M345.74 218.24V209.4H347.54V215.03L350.99 209.4H352.63V218.24H350.83V212.58L347.39 218.21L345.74 218.24Z" fill="white"/>
    <path d="M354.6 212.411C354.6 210.411 355.95 209.211 358.12 209.211C360.29 209.211 361.64 210.401 361.64 212.411V215.241C361.64 217.241 360.29 218.431 358.12 218.431C355.95 218.431 354.6 217.251 354.6 215.241V212.411ZM359.85 212.321C359.85 211.501 359.24 210.851 358.12 210.851C357 210.851 356.39 211.501 356.39 212.321V215.321C356.39 216.141 357 216.781 358.12 216.781C359.24 216.781 359.85 216.141 359.85 215.321V212.321Z" fill="white"/>
    <path d="M363.61 218.24V209.4H365.41V213.04H368.69V209.4H370.48V218.24H368.69V214.58H365.46V218.21L363.61 218.24Z" fill="white"/>
    <path d="M372.69 218.24V209.4H374.49V213.04H377.69V209.4H379.48V218.24H377.69V214.58H374.46V218.21L372.69 218.24Z" fill="white"/>
    <path d="M382.63 217.65L383.63 215.65L380.63 210.01V209.41H382.29L384.49 213.73L386.41 209.41H387.97V210.01L384.3 218.25H382.58L382.63 217.65Z" fill="white"/>
    <path d="M389.23 218.241V209.401H391.03V213.041H392.47V212.291C392.47 210.361 393.78 209.211 395.86 209.211C397.94 209.211 399.26 210.361 399.26 212.291V215.351C399.26 217.281 397.97 218.431 395.86 218.431C393.75 218.431 392.47 217.281 392.47 215.351V214.581H391.03V218.211L389.23 218.241ZM397.47 212.241C397.47 211.471 396.91 210.871 395.86 210.871C394.81 210.871 394.26 211.471 394.26 212.241V215.451C394.26 216.221 394.82 216.811 395.86 216.811C396.9 216.811 397.47 216.221 397.47 215.451V212.241Z" fill="white"/>
    <path d="M258.69 235.141V231.831H259.38C259.675 231.446 259.902 231.013 260.05 230.551C260.237 229.901 260.318 229.226 260.29 228.551V224.551H266.09V231.821H267.09V235.131H265.45V233.391H260.33V235.131L258.69 235.141ZM264.3 231.831V226.121H261.94V228.581C261.945 229.103 261.904 229.625 261.82 230.141C261.781 230.48 261.71 230.815 261.61 231.141C261.523 231.397 261.419 231.648 261.3 231.891L264.3 231.831Z" fill="white"/>
    <path d="M268.58 233.4V224.58H274.33V226.14H270.33V228.24H273.71V229.73H270.33V231.85H274.33V233.42L268.58 233.4Z" fill="white"/>
    <path d="M275.46 233.401V232.801L277.12 230.001C276.654 229.764 276.266 229.397 276.005 228.944C275.744 228.492 275.621 227.972 275.65 227.451C275.601 227.072 275.638 226.686 275.756 226.323C275.875 225.96 276.074 225.628 276.337 225.351C276.601 225.074 276.922 224.86 277.279 224.723C277.636 224.586 278.019 224.531 278.4 224.561H282.09V233.401H280.29V230.241H278.87L277.12 233.401H275.46ZM280.29 228.721V226.121H278.79C278.614 226.094 278.433 226.109 278.264 226.164C278.094 226.22 277.94 226.313 277.813 226.439C277.686 226.564 277.59 226.717 277.532 226.885C277.474 227.054 277.456 227.234 277.48 227.411C277.48 228.281 277.93 228.721 278.85 228.721H280.29Z" fill="white"/>
    <path d="M285.91 233.4V226.12H283.43V224.58H290.18V226.14H287.69V233.42L285.91 233.4Z" fill="white"/>
    <path d="M291.52 233.4V224.58H297.28V226.14H293.28V228.24H296.69V229.73H293.3V231.85H297.3V233.42L291.52 233.4Z" fill="white"/>
    <path d="M298.16 231.75C299.46 231.7 299.7 231.29 299.75 228.75V224.58H305.5V233.42H303.69V226.14H301.38V229.14C301.477 230.306 301.201 231.472 300.59 232.47C300.29 232.819 299.911 233.091 299.485 233.265C299.059 233.439 298.598 233.509 298.14 233.47L298.16 231.75Z" fill="white"/>
    <path d="M307.69 233.4V224.58H309.48V227.91H311.69C312.044 227.899 312.395 227.964 312.721 228.102C313.047 228.239 313.34 228.446 313.578 228.707C313.817 228.968 313.996 229.278 314.103 229.615C314.21 229.953 314.243 230.309 314.2 230.66C314.243 231.012 314.21 231.368 314.103 231.706C313.996 232.044 313.817 232.354 313.578 232.616C313.34 232.878 313.048 233.086 312.722 233.224C312.396 233.363 312.044 233.43 311.69 233.42L307.69 233.4ZM309.48 231.83H311.28C311.429 231.833 311.577 231.802 311.712 231.741C311.848 231.679 311.968 231.588 312.064 231.474C312.16 231.36 312.229 231.226 312.266 231.081C312.304 230.937 312.308 230.786 312.28 230.64C312.307 230.495 312.301 230.345 312.262 230.202C312.224 230.059 312.155 229.926 312.059 229.813C311.964 229.701 311.844 229.61 311.709 229.549C311.574 229.488 311.428 229.458 311.28 229.46H309.48V231.83Z" fill="white"/>
    <path d="M315.8 233.4V224.58H317.6V228.21H320.83V224.58H322.62V233.42H320.83V229.78H317.6V233.42L315.8 233.4Z" fill="white"/>
    <path d="M324.59 227.581C324.59 225.581 325.94 224.391 328.12 224.391C330.3 224.391 331.69 225.581 331.69 227.581V230.411C331.69 232.411 330.34 233.611 328.17 233.611C326 233.611 324.64 232.421 324.64 230.411L324.59 227.581ZM329.85 227.491C329.85 226.671 329.24 226.031 328.12 226.031C327 226.031 326.39 226.671 326.39 227.491V230.491C326.39 231.311 326.99 231.951 328.12 231.951C329.25 231.951 329.85 231.311 329.85 230.491V227.491Z" fill="white"/>
    <path d="M333.36 230.401V227.581C333.36 225.581 334.59 224.401 336.83 224.401C337.682 224.369 338.517 224.646 339.18 225.181C339.5 225.47 339.751 225.828 339.912 226.229C340.073 226.629 340.141 227.061 340.11 227.491V227.621H338.32V227.491C338.326 227.286 338.288 227.082 338.207 226.893C338.127 226.704 338.006 226.535 337.854 226.397C337.702 226.259 337.522 226.156 337.326 226.095C337.13 226.033 336.924 226.015 336.72 226.041C335.72 226.041 335.15 226.561 335.15 227.451V230.581C335.15 231.481 335.67 231.991 336.72 231.991C336.924 232.019 337.131 232.002 337.328 231.941C337.525 231.88 337.705 231.777 337.858 231.639C338.01 231.501 338.131 231.331 338.211 231.141C338.29 230.951 338.328 230.747 338.32 230.541V230.421H340.11V230.541C340.14 230.974 340.072 231.409 339.911 231.812C339.75 232.216 339.5 232.577 339.18 232.871C338.513 233.399 337.68 233.672 336.83 233.641C334.59 233.581 333.36 232.421 333.36 230.401Z" fill="white"/>
    <path d="M343.56 233.4V226.12H341.07V224.58H347.83V226.14H345.35V233.42L343.56 233.4Z" fill="white"/>
    <path d="M349.17 233.4V224.58H350.96V227.91H353.08C353.434 227.897 353.787 227.961 354.114 228.098C354.44 228.235 354.733 228.442 354.972 228.704C355.211 228.965 355.39 229.276 355.497 229.614C355.603 229.952 355.635 230.309 355.59 230.66C355.635 231.012 355.603 231.369 355.496 231.708C355.39 232.046 355.211 232.357 354.972 232.62C354.734 232.882 354.441 233.09 354.114 233.228C353.787 233.366 353.435 233.432 353.08 233.42L349.17 233.4ZM350.96 231.83H352.75C352.896 231.824 353.04 231.788 353.171 231.724C353.303 231.66 353.419 231.568 353.513 231.456C353.607 231.344 353.677 231.214 353.718 231.073C353.759 230.933 353.77 230.785 353.75 230.64C353.777 230.495 353.771 230.345 353.732 230.202C353.694 230.059 353.625 229.926 353.529 229.813C353.434 229.701 353.314 229.61 353.179 229.549C353.045 229.488 352.898 229.458 352.75 229.46H350.96V231.83Z" fill="white"/>
    <path d="M266.18 286.269V277.429H270.18C270.539 277.416 270.896 277.481 271.228 277.621C271.559 277.76 271.856 277.969 272.097 278.235C272.339 278.501 272.52 278.816 272.628 279.158C272.735 279.501 272.767 279.863 272.72 280.219C272.765 280.575 272.732 280.936 272.624 281.277C272.516 281.619 272.335 281.933 272.093 282.197C271.851 282.462 271.555 282.67 271.225 282.809C270.894 282.947 270.538 283.012 270.18 282.999H268.02V286.269H266.18ZM267.98 281.439H269.81C270.4 281.439 270.86 281.019 270.86 280.209C270.86 279.399 270.4 278.999 269.81 278.999H267.98V281.439Z" fill="white"/>
    <path d="M274.33 286.27V277.43H280.09V279H276.09V281.09H279.48V282.59H276.09V284.71H280.09V286.27H274.33Z" fill="white"/>
    <path d="M280.94 286.27V285.68L284 277.43H285.76L288.83 285.68V286.27H287.06L286.35 284.2H283.35L282.62 286.27H280.94ZM283.86 282.71H285.81L284.81 279.83L283.86 282.71Z" fill="white"/>
    <path d="M289.3 284.63C290.61 284.58 290.85 284.16 290.9 281.63V277.41H296.69V286.25H294.9V278.98H292.59V281.93C292.688 283.099 292.412 284.269 291.8 285.27C291.499 285.618 291.121 285.89 290.695 286.064C290.269 286.237 289.808 286.308 289.35 286.27L289.3 284.63Z" fill="white"/>
    <path d="M298.86 286.27V277.43H300.66V283.06L304.11 277.43H305.75V286.27H303.95V280.64L300.51 286.27H298.86Z" fill="white"/>
    <path d="M308.46 285.689C308.12 285.411 307.852 285.055 307.678 284.651C307.504 284.247 307.429 283.808 307.46 283.369H309.26C309.26 284.369 309.96 284.819 310.96 284.819C311.96 284.819 312.4 284.429 312.4 283.709C312.4 282.989 311.93 282.609 311 282.609H309.86V281.119H311C311.77 281.119 312.21 280.729 312.21 280.059C312.214 279.893 312.182 279.727 312.117 279.574C312.051 279.421 311.953 279.284 311.83 279.172C311.707 279.06 311.561 278.976 311.402 278.925C311.243 278.875 311.075 278.859 310.91 278.879C310.715 278.862 310.519 278.888 310.335 278.955C310.152 279.023 309.986 279.131 309.849 279.27C309.712 279.41 309.608 279.578 309.544 279.763C309.48 279.948 309.458 280.145 309.48 280.339H307.69C307.657 279.907 307.721 279.474 307.879 279.07C308.036 278.667 308.283 278.304 308.6 278.009C309.25 277.479 310.072 277.205 310.91 277.239C312.91 277.239 314.03 278.239 314.03 279.869C314.029 280.259 313.928 280.641 313.735 280.979C313.542 281.318 313.265 281.6 312.93 281.799C313.314 281.947 313.643 282.21 313.872 282.552C314.101 282.894 314.219 283.298 314.21 283.709C314.21 285.389 313 286.459 310.96 286.459C310.063 286.495 309.181 286.223 308.46 285.689Z" fill="white"/>
    <path d="M315.04 286.27V285.68L318.1 277.43H319.85L322.92 285.68V286.27H321.15L320.45 284.2H317.45L316.71 286.27H315.04ZM317.96 282.71H319.9L318.9 279.83L317.96 282.71Z" fill="white"/>
    <path d="M330.28 288.02V286.27H324.28V277.43H326.07V284.71H329.15V277.43H330.95V284.71H331.95V288.02H330.28Z" fill="white"/>
    <path d="M333.45 286.27V277.43H335.24V283.06L338.69 277.43H340.34V286.27H338.54V280.64L335.09 286.27H333.45Z" fill="white"/>
    <path d="M341.94 286.27V285.68L343.6 282.88C343.133 282.642 342.745 282.273 342.484 281.818C342.223 281.364 342.1 280.843 342.13 280.32C342.081 279.941 342.118 279.556 342.236 279.192C342.355 278.829 342.554 278.497 342.817 278.22C343.081 277.943 343.402 277.729 343.759 277.592C344.116 277.455 344.499 277.4 344.88 277.43H348.57V286.27H346.77V283.12H345.35L343.6 286.27H341.94ZM346.77 281.6V279H345.27C345.094 278.973 344.913 278.988 344.744 279.044C344.574 279.099 344.42 279.193 344.293 279.318C344.166 279.443 344.07 279.596 344.012 279.764C343.954 279.933 343.936 280.113 343.96 280.29C343.96 281.16 344.41 281.6 345.33 281.6H346.77Z" fill="white"/>
    <path d="M271.42 343.919H270.36L268.71 341.169V346.579H267.07V338.199H268.69L270.9 341.899L273.1 338.199H274.69V346.579H273.05V341.219L271.42 343.919Z" fill="white"/>
    <path d="M276.58 341C276.58 339.1 277.86 338 279.92 338C281.98 338 283.26 339.13 283.26 341V343.68C283.26 345.59 281.98 346.68 279.92 346.68C277.86 346.68 276.58 345.56 276.58 343.68V341ZM281.58 340.92C281.58 340.14 281.01 339.53 279.94 339.53C278.87 339.53 278.3 340.14 278.3 340.92V343.77C278.3 344.55 278.87 345.16 279.94 345.16C281.01 345.16 281.58 344.55 281.58 343.77V340.92Z" fill="white"/>
    <path d="M285.13 346.581V338.201H286.83V341.581H289.89V338.131H291.59V346.581H289.89V343.141H286.83V346.581H285.13Z" fill="white"/>
    <path d="M293.69 346.579V338.199H295.39V343.539L298.66 338.199H300.22V346.579H298.52V341.239L295.25 346.579H293.69Z" fill="white"/>
    <path d="M303.86 346.579V339.689H301.5V338.199H307.9V339.689H305.56V346.579H303.86Z" fill="white"/>
    <path d="M308.93 341C308.93 339.1 310.21 338 312.27 338C314.33 338 315.61 339.13 315.61 341V343.68C315.61 345.59 314.33 346.68 312.27 346.68C310.21 346.68 308.93 345.56 308.93 343.68V341ZM313.93 340.92C313.93 340.14 313.36 339.53 312.29 339.53C311.22 339.53 310.65 340.14 310.65 340.92V343.77C310.65 344.55 311.23 345.16 312.29 345.16C313.35 345.16 313.93 344.55 313.93 343.77V340.92Z" fill="white"/>
    <path d="M317.48 346.581V338.201H321.23C321.571 338.189 321.909 338.252 322.223 338.384C322.537 338.517 322.819 338.716 323.048 338.968C323.277 339.22 323.449 339.519 323.551 339.844C323.653 340.169 323.684 340.513 323.64 340.851C323.682 341.187 323.651 341.529 323.548 341.853C323.445 342.176 323.273 342.473 323.043 342.723C322.814 342.973 322.533 343.171 322.22 343.301C321.907 343.432 321.569 343.493 321.23 343.481H319.23V346.581H317.48ZM319.18 342.001H320.92C321.48 342.001 321.92 341.601 321.92 340.841C321.92 340.081 321.49 339.691 320.92 339.691H319.18V342.001Z" fill="white"/>
    <path d="M325.2 346.579V338.199H326.9V343.539L330.17 338.199H331.69V346.579H329.99V341.239L326.72 346.579H325.2Z" fill="white"/>
    <path d="M333.84 346.581V338.201H335.54V341.581H338.6V338.131H340.3V346.581H338.6V343.141H335.54V346.581H333.84Z" fill="white"/>
    <path d="M342.41 346.579V338.199H347.69V339.689H344.12V346.579H342.41Z" fill="white"/>
    <path d="M270.007 406.58C269.667 406.302 269.399 405.946 269.225 405.542C269.051 405.138 268.976 404.699 269.007 404.26H270.767C270.767 405.26 271.477 405.71 272.477 405.71C273.477 405.71 273.917 405.32 273.917 404.6C273.917 403.88 273.447 403.5 272.517 403.5H271.377V402.01H272.517C273.287 402.01 273.727 401.62 273.727 400.95C273.731 400.784 273.699 400.618 273.634 400.465C273.568 400.312 273.47 400.175 273.347 400.063C273.223 399.951 273.077 399.867 272.919 399.816C272.76 399.766 272.592 399.75 272.427 399.77C272.233 399.753 272.038 399.779 271.855 399.846C271.672 399.913 271.507 400.02 271.37 400.158C271.233 400.297 271.129 400.464 271.065 400.648C271 400.831 270.977 401.027 270.997 401.22H269.207C269.174 400.79 269.239 400.358 269.397 399.957C269.554 399.555 269.8 399.194 270.117 398.9C270.765 398.367 271.588 398.092 272.427 398.13C274.427 398.13 275.547 399.18 275.547 400.76C275.546 401.15 275.444 401.532 275.252 401.871C275.059 402.209 274.782 402.491 274.447 402.69C274.835 402.831 275.17 403.088 275.406 403.426C275.643 403.765 275.769 404.168 275.767 404.58C275.767 406.26 274.557 407.33 272.527 407.33C271.626 407.376 270.736 407.112 270.007 406.58Z" fill="white"/>
    <path d="M276.587 407.18V406.58L279.587 398.33H281.347L284.417 406.58V407.17H282.647L281.937 405.1H278.937L278.207 407.17L276.587 407.18ZM279.497 403.62H281.497L280.497 400.74L279.497 403.62Z" fill="white"/>
    <path d="M285.767 407.18V398.34H289.497C289.836 398.293 290.182 398.323 290.509 398.426C290.836 398.529 291.135 398.704 291.386 398.938C291.637 399.172 291.833 399.458 291.959 399.777C292.085 400.095 292.139 400.438 292.117 400.78C292.141 401.147 292.06 401.513 291.882 401.836C291.705 402.158 291.44 402.423 291.117 402.6C291.534 402.759 291.89 403.048 292.131 403.424C292.372 403.801 292.486 404.244 292.457 404.69C292.487 405.035 292.439 405.382 292.317 405.706C292.194 406.031 292.001 406.323 291.75 406.562C291.499 406.801 291.198 406.981 290.869 407.088C290.539 407.195 290.19 407.226 289.847 407.18H285.767ZM287.557 402.01H289.397C289.907 402.01 290.307 401.66 290.307 400.95C290.319 400.823 290.305 400.695 290.265 400.574C290.225 400.453 290.16 400.342 290.074 400.247C289.989 400.153 289.884 400.078 289.767 400.027C289.651 399.975 289.524 399.949 289.397 399.95H287.557V402.01ZM287.557 405.61H289.767C290.267 405.61 290.677 405.26 290.677 404.55C290.694 404.42 290.683 404.288 290.645 404.162C290.607 404.036 290.543 403.92 290.457 403.821C290.371 403.722 290.266 403.642 290.146 403.586C290.027 403.531 289.898 403.502 289.767 403.5H287.557V405.61Z" fill="white"/>
    <path d="M294.227 407.18V398.34H299.987V399.91H295.987V402H299.377V403.49H295.987V405.58H299.987V407.15L294.227 407.18Z" fill="white"/>
    <path d="M301.767 407.18V398.34H305.767C306.126 398.326 306.483 398.392 306.814 398.531C307.146 398.67 307.443 398.879 307.684 399.145C307.926 399.411 308.107 399.726 308.215 400.069C308.322 400.411 308.354 400.773 308.307 401.13C308.352 401.485 308.319 401.846 308.211 402.187C308.103 402.529 307.922 402.843 307.68 403.107C307.438 403.372 307.142 403.581 306.812 403.719C306.481 403.858 306.125 403.923 305.767 403.91H303.607V407.18H301.767ZM303.557 402.34H305.387C305.987 402.34 306.437 401.93 306.437 401.12C306.437 400.31 305.987 399.91 305.387 399.91H303.557V402.34Z" fill="white"/>
    <path d="M309.867 407.181V398.341H311.667V405.581H314.217V398.311H316.007V405.581H318.547V398.311H320.337V407.151L309.867 407.181Z" fill="white"/>
    <path d="M322.557 407.18V398.34H328.317V399.91H324.317V402H327.767V403.49H324.387V405.58H328.387V407.15L322.557 407.18Z" fill="white"/>
    <path d="M330.057 407.18V398.34H331.857V401.98H335.087V398.34H336.887V407.18H335.087V403.58H331.857V407.22L330.057 407.18Z" fill="white"/>
    <path d="M338.847 401.35C338.847 399.35 340.207 398.15 342.377 398.15C344.547 398.15 345.897 399.34 345.897 401.35V404.17C345.897 406.17 344.547 407.37 342.377 407.37C340.207 407.37 338.847 406.18 338.847 404.17V401.35ZM344.107 401.26C344.107 400.44 343.497 399.79 342.377 399.79C341.257 399.79 340.647 400.44 340.647 401.26V404.26C340.647 405.08 341.247 405.73 342.377 405.73C343.507 405.73 344.107 405.08 344.107 404.26V401.26Z" fill="white"/>
    <path d="M262.29 165.37V156.52H264.09V160.16H267.32V156.52H269.11V165.37H267.32V161.73H264.09V165.37H262.29Z" fill="white"/>
    <path d="M271.34 165.37V156.52H277.09V158.09H273.09V160.19H276.47V161.68H273.09V163.8H277.09V165.37H271.34Z" fill="white"/>
    <path d="M281.54 162.37V159.52C281.54 157.52 282.78 156.34 285.01 156.34C285.862 156.308 286.697 156.585 287.36 157.12C287.682 157.409 287.933 157.767 288.096 158.167C288.259 158.567 288.329 158.999 288.3 159.43V159.56H286.5V159.43C286.506 159.225 286.468 159.021 286.387 158.832C286.307 158.644 286.186 158.474 286.034 158.337C285.882 158.199 285.702 158.096 285.506 158.034C285.31 157.973 285.104 157.954 284.9 157.98C283.9 157.98 283.33 158.5 283.33 159.39V162.5C283.33 163.4 283.85 163.91 284.9 163.91C285.104 163.94 285.312 163.924 285.51 163.864C285.707 163.804 285.889 163.701 286.042 163.562C286.195 163.424 286.315 163.253 286.394 163.063C286.473 162.872 286.51 162.667 286.5 162.46V162.33H288.3V162.46C288.329 162.894 288.259 163.329 288.097 163.733C287.934 164.136 287.682 164.498 287.36 164.79C286.694 165.319 285.86 165.592 285.01 165.56C282.78 165.58 281.54 164.39 281.54 162.37Z" fill="white"/>
    <path d="M291.74 165.37V158.09H289.25V156.52H296.01V158.09H293.54V165.37H291.74Z" fill="white"/>
    <path d="M295.88 165.37V164.77L298.94 156.52H300.69L303.75 164.77V165.37H301.99L301.28 163.29H298.28L297.55 165.37H295.88ZM298.8 161.8H300.8L299.8 158.92L298.8 161.8Z" fill="white"/>
    <path d="M305.1 165.37V156.52H309.1C310.67 156.52 311.63 157.6 311.63 159.32C311.675 159.674 311.643 160.033 311.535 160.374C311.427 160.714 311.247 161.027 311.006 161.29C310.766 161.554 310.47 161.762 310.141 161.9C309.812 162.038 309.457 162.103 309.1 162.09H306.94V165.37H305.1ZM306.9 160.53H308.69C309.28 160.53 309.69 160.11 309.69 159.3C309.711 159.153 309.701 159.004 309.661 158.862C309.621 158.719 309.552 158.587 309.458 158.473C309.364 158.359 309.247 158.266 309.115 158.2C308.982 158.134 308.838 158.096 308.69 158.09H306.86L306.9 160.53Z" fill="white"/>
    <path d="M314.85 165.37V158.09H312.36V156.52H319.12V158.09H316.69V165.37H314.85Z" fill="white"/>
    <path d="M320.2 159.581C320.2 157.581 321.56 156.391 323.73 156.391C325.9 156.391 327.25 157.571 327.25 159.581V162.411C327.25 164.411 325.9 165.611 323.73 165.611C321.56 165.611 320.2 164.421 320.2 162.411V159.581ZM325.46 159.491C325.46 158.671 324.85 158.031 323.73 158.031C322.61 158.031 322 158.671 322 159.491V162.491C322 163.311 322.6 163.951 323.73 163.951C324.86 163.951 325.46 163.311 325.46 162.491V159.491Z" fill="white"/>
    <path d="M329.22 165.37V156.52H332.96C333.299 156.473 333.644 156.502 333.971 156.606C334.297 156.709 334.596 156.884 334.846 157.118C335.096 157.352 335.291 157.638 335.416 157.957C335.542 158.276 335.594 158.618 335.57 158.96C335.597 159.327 335.516 159.695 335.339 160.018C335.161 160.341 334.894 160.605 334.57 160.78C334.988 160.941 335.344 161.232 335.585 161.61C335.826 161.988 335.94 162.433 335.91 162.88C335.94 163.226 335.892 163.574 335.769 163.899C335.647 164.224 335.452 164.517 335.2 164.756C334.948 164.996 334.646 165.175 334.315 165.281C333.984 165.388 333.634 165.418 333.29 165.37H329.22ZM331.01 160.2H332.86C333.36 160.2 333.77 159.85 333.77 159.14C333.789 159.009 333.779 158.877 333.742 158.75C333.705 158.624 333.641 158.507 333.554 158.407C333.468 158.308 333.362 158.228 333.242 158.173C333.122 158.118 332.992 158.09 332.86 158.09H331.01V160.2ZM331.01 163.8H333.22C333.73 163.8 334.13 163.45 334.13 162.74C334.13 162.03 333.73 161.69 333.22 161.69H331.01V163.8Z" fill="white"/>
    <path d="M336.76 165.37V164.77L339.82 156.52H341.57L344.64 164.77V165.37H342.87L342.17 163.29H339.17L338.43 165.37H336.76ZM339.68 161.8H341.62L340.62 158.92L339.68 161.8Z" fill="white"/>
    <path d="M345.12 163.72C346.42 163.67 346.66 163.26 346.71 160.72V156.5H352.46V165.35H350.69V158.07H348.38V161.07C348.48 162.235 348.207 163.401 347.6 164.4C347.299 164.748 346.921 165.02 346.495 165.193C346.069 165.367 345.608 165.438 345.15 165.4L345.12 163.72Z" fill="white"/>
    <path d="M211.02 104.91V96.0703H217.76V104.91H215.97V97.6403H212.81V104.91H211.02Z" fill="white"/>
    <path d="M219.98 104.91V96.07H223.98C224.339 96.0568 224.696 96.122 225.028 96.2611C225.359 96.4003 225.656 96.61 225.897 96.8756C226.139 97.1412 226.32 97.4564 226.428 97.7991C226.535 98.1418 226.567 98.5039 226.52 98.86C226.565 99.2154 226.533 99.5764 226.424 99.9179C226.316 100.259 226.135 100.573 225.893 100.838C225.652 101.102 225.355 101.311 225.025 101.449C224.695 101.588 224.338 101.653 223.98 101.64H221.82V104.91H219.98ZM221.78 100.07H223.61C224.2 100.07 224.61 99.66 224.61 98.85C224.61 98.04 224.15 97.64 223.61 97.64H221.78V100.07Z" fill="white"/>
    <path d="M228.13 104.91V96.0703H233.89V97.6403H229.89V99.7303H233.28V101.22H229.89V103.35H233.89V104.91H228.13Z" fill="white"/>
    <path d="M234.81 106.66V103.35H235.5C235.795 102.965 236.022 102.532 236.17 102.07C236.356 101.421 236.437 100.746 236.41 100.07V96.0703H242.21V103.35H243.21V106.66H241.57V104.91H236.45V106.66H234.81ZM240.42 103.35V97.6403H238.06V100.05C238.065 100.569 238.025 101.088 237.94 101.6C237.901 101.939 237.831 102.274 237.73 102.6C237.641 102.856 237.537 103.106 237.42 103.35H240.42Z" fill="white"/>
    <path d="M244.74 104.91V96.0703H251.48V104.91H249.69V97.6403H246.53V104.91H244.74Z" fill="white"/>
    <path d="M253.69 104.91V96.07H257.69C258.049 96.0568 258.406 96.122 258.738 96.2611C259.069 96.4003 259.366 96.61 259.607 96.8756C259.849 97.1412 260.03 97.4564 260.138 97.7991C260.245 98.1418 260.277 98.5039 260.23 98.86C260.275 99.2154 260.243 99.5764 260.134 99.9179C260.026 100.259 259.845 100.573 259.603 100.838C259.362 101.102 259.065 101.311 258.735 101.449C258.404 101.588 258.048 101.653 257.69 101.64H255.53V104.91H253.69ZM255.48 100.07H257.32C257.91 100.07 258.32 99.66 258.32 98.85C258.32 98.04 257.87 97.64 257.32 97.64H255.48V100.07Z" fill="white"/>
    <path d="M261.59 99.0809C261.59 97.0809 262.94 95.8809 265.12 95.8809C267.3 95.8809 268.64 97.0709 268.64 99.0809V101.911C268.64 103.911 267.29 105.101 265.12 105.101C262.95 105.101 261.59 103.911 261.59 101.911V99.0809ZM266.85 98.9909C266.85 98.1709 266.24 97.5209 265.12 97.5209C264 97.5209 263.39 98.1709 263.39 98.9909V101.991C263.39 102.821 263.99 103.461 265.12 103.461C266.25 103.461 266.85 102.821 266.85 101.991V98.9909Z" fill="white"/>
    <path d="M270.61 104.91V96.0703H276.37V97.6403H272.37V99.7303H275.76V101.22H272.37V103.35H276.37V104.91H270.61Z" fill="white"/>
    <path d="M278.11 104.91V96.0703H279.9V99.7103H280.84L282.97 96.0703H284.69V96.6603L282.45 100.39L284.88 104.32V104.91H283.1L280.89 101.27H279.95V104.91H278.11Z" fill="white"/>
    <path d="M287.76 104.91V97.6403H285.27V96.0703H292.03V97.6403H289.55V104.91H287.76Z" fill="white"/>
    <path d="M293.36 104.91V96.0703H295.16V99.7103H298.39V96.0703H300.18V104.91H298.39V101.27H295.16V104.91H293.36Z" fill="white"/>
    <path d="M301.52 104.91V104.32L304.58 96.0703H306.33L309.4 104.32V104.91H307.63L306.93 102.84H303.93L303.2 104.91H301.52ZM304.44 101.35H306.38L305.38 98.4703L304.44 101.35Z" fill="white"/>
    <path d="M310.12 104.91V104.32L311.79 101.51C311.322 101.276 310.932 100.909 310.67 100.456C310.407 100.003 310.282 99.4834 310.31 98.9604C310.261 98.5814 310.298 98.1962 310.417 97.833C310.536 97.4698 310.734 97.1377 310.997 96.8609C311.261 96.5841 311.583 96.3695 311.939 96.2327C312.296 96.096 312.679 96.0405 313.06 96.0704H316.75V104.91H314.96V101.75H313.53L311.79 104.91H310.12ZM314.96 100.24V97.6404H313.46C313.284 97.6126 313.104 97.6262 312.934 97.6801C312.764 97.7339 312.609 97.8266 312.48 97.9508C312.352 98.0749 312.255 98.2272 312.196 98.3954C312.137 98.5637 312.118 98.7434 312.14 98.9204C312.14 99.8004 312.6 100.24 313.52 100.24H314.96Z" fill="white"/>
    <path d="M321.93 104.91V96.0703H328.69V104.91H326.9V97.6403H323.69V104.91H321.93Z" fill="white"/>
    <path d="M330.69 99.0809C330.69 97.0809 332.04 95.8809 334.22 95.8809C336.4 95.8809 337.74 97.0709 337.74 99.0809V101.911C337.74 103.911 336.39 105.101 334.22 105.101C332.05 105.101 330.69 103.911 330.69 101.911V99.0809ZM335.95 98.9909C335.95 98.1709 335.34 97.5209 334.22 97.5209C333.1 97.5209 332.48 98.1709 332.48 98.9909V101.991C332.48 102.821 333.09 103.461 334.22 103.461C335.35 103.461 335.95 102.821 335.95 101.991V98.9909Z" fill="white"/>
    <path d="M338.84 106.66V103.35H339.53C339.825 102.965 340.052 102.532 340.2 102.07C340.381 101.42 340.462 100.745 340.44 100.07V96.0703H346.24V103.35H347.24V106.66H345.59V104.91H340.48V106.66H338.84ZM344.44 103.35V97.6403H342.08V100.05C342.083 100.569 342.046 101.087 341.97 101.6C341.934 101.941 341.86 102.276 341.75 102.6C341.669 102.858 341.569 103.108 341.45 103.35H344.44Z" fill="white"/>
    <path d="M348.76 104.91V96.0703H354.32V97.6403H350.56V104.91H348.76Z" fill="white"/>
    <path d="M355.28 99.0809C355.28 97.0809 356.63 95.8809 358.8 95.8809C360.97 95.8809 362.33 97.0709 362.33 99.0809V101.911C362.33 103.911 360.97 105.101 358.8 105.101C356.63 105.101 355.28 103.911 355.28 101.911V99.0809ZM360.53 98.9909C360.53 98.1709 359.93 97.5209 358.8 97.5209C357.67 97.5209 357.07 98.1709 357.07 98.9909V101.991C357.07 102.821 357.68 103.461 358.8 103.461C359.92 103.461 360.53 102.821 360.53 101.991V98.9909Z" fill="white"/>
    <path d="M365.9 104.91V97.6403H363.41V96.0703H370.17V97.6403H367.69V104.91H365.9Z" fill="white"/>
    <path d="M371.25 99.0809C371.25 97.0809 372.6 95.8809 374.78 95.8809C376.96 95.8809 378.3 97.0709 378.3 99.0809V101.911C378.3 103.911 376.95 105.101 374.78 105.101C372.61 105.101 371.25 103.911 371.25 101.911V99.0809ZM376.51 98.9909C376.51 98.1709 375.9 97.5209 374.78 97.5209C373.66 97.5209 373.05 98.1709 373.05 98.9909V101.991C373.05 102.821 373.65 103.461 374.78 103.461C375.91 103.461 376.51 102.821 376.51 101.991V98.9909Z" fill="white"/>
    <path d="M380.27 104.911V96.0706H384.01C384.349 96.0236 384.695 96.0529 385.021 96.1564C385.347 96.2599 385.646 96.4349 385.896 96.6687C386.147 96.9025 386.341 97.1892 386.467 97.5078C386.592 97.8265 386.644 98.1691 386.62 98.5106C386.643 98.8775 386.561 99.2435 386.384 99.5657C386.207 99.8879 385.942 100.153 385.62 100.331C386.037 100.491 386.391 100.781 386.632 101.156C386.873 101.532 386.988 101.975 386.96 102.421C386.99 102.767 386.942 103.115 386.82 103.44C386.697 103.765 386.502 104.058 386.25 104.297C385.998 104.536 385.696 104.716 385.365 104.822C385.035 104.928 384.684 104.959 384.34 104.911H380.27ZM382.06 99.7506H383.91C384.41 99.7506 384.82 99.3906 384.82 98.6906C384.839 98.5602 384.829 98.4273 384.792 98.3009C384.755 98.1745 384.691 98.0576 384.604 97.9581C384.518 97.8585 384.412 97.7787 384.292 97.7239C384.172 97.6691 384.042 97.6407 383.91 97.6406H382.06V99.7506ZM382.06 103.351H384.27C384.78 103.351 385.18 102.991 385.18 102.281C385.193 102.154 385.178 102.026 385.138 101.905C385.098 101.784 385.033 101.672 384.948 101.578C384.862 101.484 384.757 101.409 384.64 101.357C384.524 101.306 384.397 101.28 384.27 101.281H382.06V103.351Z" fill="white"/>
    <path d="M388.69 104.91V96.0703H390.48V99.7103H391.42L393.55 96.0703H395.22V96.6603L392.99 100.39L395.41 104.32V104.91H393.63L391.42 101.27H390.48V104.91H388.69Z" fill="white"/>
    <path d="M395.85 104.91V104.32L398.91 96.0703H400.69L403.76 104.32V104.91H401.99L401.29 102.84H398.29L397.56 104.91H395.85ZM398.77 101.35H400.69L399.69 98.4703L398.77 101.35Z" fill="white"/>
    <path d="M226.58 44.4601V35.5801H232.13V37.1401H228.37V44.4201L226.58 44.4601Z" fill="white"/>
    <path d="M233.69 44.4601V35.5801H235.49V41.2101L238.94 35.5801H240.58V44.4201H238.78V38.7901L235.34 44.4201L233.69 44.4601Z" fill="white"/>
    <path d="M242.83 44.4601V35.5801H249.57V44.4201H247.78V37.1401H244.62V44.4201L242.83 44.4601Z" fill="white"/>
    <path d="M251.54 38.5806C251.54 36.5806 252.89 35.3906 255.06 35.3906C257.23 35.3906 258.59 36.5706 258.59 38.5806V41.4106C258.59 43.4106 257.24 44.6107 255.06 44.6107C252.88 44.6107 251.54 43.4206 251.54 41.4106V38.5806ZM256.79 38.4906C256.79 37.6706 256.19 37.0306 255.06 37.0306C253.93 37.0306 253.33 37.6706 253.33 38.4906V41.4906C253.33 42.3106 253.94 42.9606 255.06 42.9606C256.18 42.9606 256.79 42.3106 256.79 41.4906V38.4906Z" fill="white"/>
    <path d="M262.16 44.4601V37.1801H259.69V35.5801H266.45V37.1401H263.97V44.4201L262.16 44.4601Z" fill="white"/>
    <path d="M267.77 44.4601V35.5801H273.53V37.1401H269.53V39.2401H272.92V40.7301H269.53V42.8501H273.53V44.4201L267.77 44.4601Z" fill="white"/>
    <path d="M275.63 43.8806C275.29 43.5994 275.023 43.2414 274.849 42.8363C274.675 42.4311 274.6 41.9905 274.63 41.5506H276.42C276.42 42.5506 277.13 43.0107 278.13 43.0107C279.13 43.0107 279.57 42.6107 279.57 41.8907C279.57 41.1707 279.1 40.8006 278.16 40.8006H277.03V39.3006H278.16C278.93 39.3006 279.38 38.9106 279.38 38.2406C279.383 38.074 279.35 37.9087 279.283 37.756C279.216 37.6033 279.117 37.4668 278.993 37.3557C278.869 37.2447 278.722 37.1618 278.563 37.1126C278.403 37.0634 278.235 37.0491 278.07 37.0706C277.877 37.0531 277.682 37.0789 277.499 37.146C277.317 37.2131 277.152 37.32 277.016 37.4588C276.88 37.5976 276.777 37.7649 276.713 37.9485C276.65 38.1322 276.628 38.3276 276.65 38.5207H274.85C274.82 38.0906 274.886 37.6592 275.043 37.2579C275.2 36.8566 275.445 36.4954 275.76 36.2007C276.41 35.6701 277.232 35.3962 278.07 35.4306C280.07 35.4306 281.19 36.4306 281.19 38.0506C281.192 38.4407 281.093 38.8247 280.902 39.1648C280.711 39.5049 280.434 39.7895 280.1 39.9906C280.48 40.1397 280.806 40.4017 281.033 40.7414C281.26 41.0811 281.378 41.4822 281.37 41.8907C281.37 43.5707 280.16 44.6507 278.13 44.6507C277.234 44.6814 276.353 44.4102 275.63 43.8806Z" fill="white"/>
    <path d="M282.21 44.4592V43.8592L285.27 35.6191H287.03L290.1 43.8592V44.4592H288.33L287.62 42.3892H284.62L283.89 44.4592H282.21ZM285.13 40.8992H287.13L286.13 38.0192L285.13 40.8992Z" fill="white"/>
    <path d="M293.75 45.7209V45.1309L297.25 34.7109H298.59V35.3009L295.09 45.7209H293.75Z" fill="white"/>
    <path d="M303.14 44.4601V35.5801H304.93V41.2101L308.38 35.5801H310.02V44.4201H308.23V38.7901L304.78 44.4201L303.14 44.4601Z" fill="white"/>
    <path d="M312.24 44.4601V35.5801H314.04V39.2101H317.27V35.5801H319.06V44.4201H317.27V40.7801H314.04V44.4201L312.24 44.4601Z" fill="white"/>
    <path d="M321.28 44.4601V35.5801H323.08V41.2101L326.53 35.5801H328.17V44.4201H326.37V38.7901L322.93 44.4201L321.28 44.4601Z" fill="white"/>
    <path d="M336.41 46.2001V44.4601H330.41V35.5801H332.2V42.8501H335.28V35.5801H337.08V42.8501H338.08V46.1601L336.41 46.2001Z" fill="white"/>
    <path d="M339.58 44.4601V35.5801H341.37V41.2101L344.82 35.5801H346.47V44.4201H344.69V38.7901L341.24 44.4201L339.58 44.4601Z" fill="white"/>
    <path d="M347.8 44.4592V43.8592L350.86 35.6191H352.61L355.68 43.8592V44.4592H353.92L353.21 42.3892H350.21L349.48 44.4592H347.8ZM350.72 40.8992H352.69L351.69 38.0192L350.72 40.8992Z" fill="white"/>
    <path d="M358.04 44.4601V37.1801H355.56V35.5801H362.31V37.1401H359.84V44.4201L358.04 44.4601Z" fill="white"/>
    <path d="M363.69 44.4601V35.5801H365.48V41.2101L368.93 35.5801H370.57V44.4201H368.78V38.7901L365.33 44.4201L363.69 44.4601Z" fill="white"/>
    <path d="M372.76 44.4601V35.5801H376.49C376.829 35.5336 377.174 35.5628 377.5 35.6657C377.826 35.7685 378.125 35.9425 378.375 36.1749C378.626 36.4074 378.822 36.6926 378.949 37.01C379.076 37.3273 379.131 37.6689 379.11 38.0101C379.137 38.3776 379.056 38.7449 378.879 39.0679C378.702 39.3908 378.435 39.6555 378.11 39.8301C378.528 39.9913 378.884 40.2821 379.125 40.6599C379.366 41.0378 379.48 41.4828 379.45 41.9301C379.48 42.2751 379.432 42.6226 379.31 42.9467C379.188 43.2707 378.994 43.5631 378.743 43.8022C378.493 44.0413 378.192 44.221 377.862 44.3279C377.533 44.4349 377.183 44.4664 376.84 44.4201L372.76 44.4601ZM374.55 39.2901H376.39C376.9 39.2901 377.3 38.9401 377.3 38.2301C377.311 38.1036 377.296 37.9761 377.255 37.8558C377.215 37.7354 377.149 37.6248 377.064 37.5309C376.978 37.4369 376.875 37.3617 376.759 37.3099C376.643 37.2582 376.517 37.231 376.39 37.2301H374.55V39.2901ZM374.55 42.8901H376.76C377.26 42.8901 377.67 42.5401 377.67 41.8301C377.68 41.7039 377.663 41.577 377.622 41.4573C377.581 41.3376 377.516 41.2276 377.431 41.134C377.345 41.0404 377.242 40.9651 377.127 40.9128C377.011 40.8606 376.887 40.8324 376.76 40.8301H374.55V42.8901Z" fill="white"/>
    <path d="M380.29 44.4592V43.8592L383.35 35.6191H385.11L388.18 43.8592V44.4592H386.41L385.7 42.3892H382.7L381.97 44.4592H380.29ZM383.21 40.8992H385.21L384.21 38.0192L383.21 40.8992Z" fill="white"/>
</svg>