<?xml version="1.0" standalone="no"?>
<!DOCTYPE svg PUBLIC "-//W3C//DTD SVG 20010904//EN"
 "http://www.w3.org/TR/2001/REC-SVG-20010904/DTD/svg10.dtd">
<svg version="1.0" xmlns="http://www.w3.org/2000/svg"
 width="19.000000pt" height="19.000000pt" viewBox="0 0 50.000000 50.000000"
 preserveAspectRatio="xMidYMid meet">

<g transform="translate(0.000000,50.000000) scale(0.100000,-0.100000)"
fill="#000000" stroke="none">
<path d="M223 348 c-130 -131 -133 -135 -169 -226 -20 -51 -34 -96 -31 -99 4
-3 48 11 99 31 92 35 95 37 228 170 73 75 131 139 127 143 -4 4 -63 -48 -130
-115 -116 -115 -162 -147 -150 -103 6 22 -21 51 -48 51 -10 0 -19 6 -19 13 0
7 54 66 120 132 112 112 131 135 112 135 -4 0 -67 -60 -139 -132z m-80 -175
c30 2 32 0 30 -30 -2 -23 2 -32 14 -35 10 -2 -8 -12 -40 -23 -78 -26 -88 -16
-62 62 11 32 21 50 23 40 3 -12 12 -16 35 -14z"/>
</g>
</svg>
